<?xml version="1.0" encoding="UTF-8"?>
<svg id="_レイヤー_1" data-name="レイヤー_1" xmlns="http://www.w3.org/2000/svg" version="1.1" viewBox="0 0 1745.54 1728.71">
  <!-- Generator: Adobe Illustrator 30.1.0, SVG Export Plug-In . SVG Version: 2.1.1 Build 136)  -->
  <defs>
    <style>
      .st0 {
        fill: none;
        stroke: #000;
        stroke-miterlimit: 10;
        stroke-width: 14px;
      }
    </style>
  </defs>
  <path class="st0" d="M883.11,415.27c-240.28,0-437.22,189.06-449.9,426.23l-113.73,540.18c-17.12,80.1,33.93,158.91,114.03,176.04,10.45,2.23,20.87,3.31,31.15,3.31,68.46,0,130-47.69,144.89-117.34l40.5-192.38c68.04,41.29,147.82,65.09,233.06,65.09,248.44,0,450.56-202.12,450.56-450.56s-202.12-450.56-450.56-450.56ZM883.11,1019.78c-84.88,0-153.94-69.06-153.94-153.94s69.06-153.94,153.94-153.94,153.94,69.06,153.94,153.94-69.06,153.94-153.94,153.94Z"/>
  <g id="_x3C_リピートラジアル_x3E_">
    <g>
      <line class="st0" x1="224.88" y1="840.16" x2="224.88" y2="840.16"/>
      <path class="st0" d="M224.88,958.82c-1.93,0-3.92-.06-5.84-.15-1.93-.12-3.89-.27-5.84-.44-1.9-.21-3.86-.45-5.75-.74-1.93-.27-3.86-.62-5.76-1.01-1.87-.35-3.8-.8-5.66-1.27-1.87-.48-3.74-1.01-5.58-1.57-1.87-.56-3.71-1.16-5.52-1.81-1.81-.65-3.65-1.36-5.43-2.11-1.78-.74-3.56-1.51-5.31-2.34-1.75-.83-3.5-1.69-5.19-2.61-1.69-.92-3.41-1.87-5.07-2.85-1.66-1.01-3.29-2.05-4.89-3.12-1.63-1.07-3.23-2.19-4.78-3.32-1.57-1.16-3.12-2.37-4.6-3.59-1.51-1.21-3-2.49-4.45-3.79-1.42-1.31-2.85-2.67-4.24-4.04-1.36-1.36-2.7-2.79-4-4.24-1.3-1.43-2.58-2.91-3.83-4.42-1.22-1.51-2.4-3.06-3.56-4.6-1.16-1.57-2.28-3.17-3.35-4.78-1.07-1.6-2.11-3.26-3.08-4.92-.98-1.66-1.96-3.35-2.85-5.04-.92-1.72-1.81-3.47-2.61-5.19-.83-1.75-1.63-3.53-2.37-5.31-.71-1.78-1.42-3.62-2.08-5.43-.65-1.81-1.28-3.68-1.84-5.52s-1.07-3.74-1.54-5.61c-.47-1.87-.92-3.77-1.3-5.67-.39-1.9-.71-3.83-1.01-5.73-.3-1.93-.53-3.86-.71-5.78-.21-1.93-.35-3.89-.44-5.81-.09-1.96-.15-3.92-.15-5.85s.06-3.91.15-5.87c.09-1.93.24-3.89.44-5.81.18-1.93.42-3.86.71-5.78.3-1.9.62-3.83,1.01-5.72.39-1.9.83-3.8,1.3-5.67.48-1.87.98-3.77,1.54-5.61.56-1.84,1.19-3.71,1.84-5.52.65-1.81,1.36-3.62,2.08-5.4.74-1.78,1.54-3.59,2.37-5.31.8-1.75,1.69-3.5,2.61-5.19.89-1.72,1.87-3.41,2.85-5.07.98-1.66,2.02-3.32,3.08-4.92,1.07-1.6,2.2-3.2,3.35-4.77,1.16-1.54,2.34-3.08,3.56-4.6,1.25-1.48,2.52-2.97,3.83-4.42,1.3-1.43,2.64-2.85,4-4.24,1.39-1.36,2.82-2.73,4.24-4.03,1.45-1.28,2.94-2.58,4.45-3.8,1.48-1.22,3.03-2.43,4.6-3.56,1.54-1.16,3.14-2.28,4.78-3.35,1.6-1.07,3.23-2.11,4.89-3.11,1.66-.98,3.38-1.93,5.07-2.85,1.69-.89,3.44-1.78,5.19-2.61,1.75-.8,3.53-1.6,5.31-2.34,1.78-.74,3.62-1.43,5.43-2.08s3.65-1.27,5.52-1.84c1.84-.56,3.71-1.1,5.58-1.57,1.87-.47,3.8-.89,5.66-1.27,1.9-.39,3.83-.71,5.76-1.01,1.9-.3,3.86-.53,5.75-.74,1.96-.18,3.91-.33,5.84-.41,3.89-.21,7.8-.21,11.69,0,1.93.09,3.89.23,5.81.41,1.93.21,3.89.45,5.78.74,1.93.3,3.86.62,5.73,1.01,1.9.39,3.8.8,5.69,1.27,1.87.48,3.74,1.01,5.58,1.57,1.84.56,3.71,1.19,5.52,1.84,1.81.65,3.65,1.34,5.43,2.08,1.78.74,3.56,1.54,5.31,2.34,1.75.83,3.5,1.72,5.19,2.61,1.69.92,3.41,1.87,5.04,2.85,1.66,1.01,3.32,2.05,4.92,3.11,1.63,1.07,3.23,2.2,4.78,3.35,1.57,1.13,3.11,2.34,4.6,3.56,1.51,1.22,3,2.52,4.42,3.8,1.45,1.3,2.88,2.67,4.24,4.03,1.39,1.4,2.73,2.82,4.03,4.24,1.31,1.45,2.58,2.93,3.83,4.42,1.22,1.51,2.4,3.06,3.56,4.6,1.16,1.57,2.28,3.17,3.35,4.77,1.07,1.6,2.11,3.26,3.08,4.92.98,1.66,1.96,3.35,2.85,5.07.92,1.69,1.78,3.44,2.61,5.19.83,1.72,1.63,3.53,2.34,5.31.74,1.78,1.45,3.59,2.11,5.4.65,1.81,1.28,3.68,1.84,5.52.56,1.84,1.07,3.74,1.54,5.61.48,1.87.92,3.77,1.3,5.67.36,1.9.71,3.83,1.01,5.72.27,1.93.53,3.86.71,5.78.21,1.93.36,3.88.44,5.81.09,1.96.15,3.92.15,5.87s-.06,3.89-.15,5.85c-.09,1.93-.24,3.88-.44,5.81-.18,1.93-.44,3.86-.71,5.78-.3,1.9-.65,3.83-1.01,5.73-.39,1.9-.83,3.8-1.3,5.67-.47,1.87-.98,3.77-1.54,5.61-.56,1.84-1.19,3.71-1.84,5.52-.65,1.81-1.36,3.65-2.11,5.43-.71,1.78-1.51,3.56-2.34,5.31-.83,1.72-1.69,3.47-2.61,5.19-.89,1.69-1.87,3.38-2.85,5.04-.98,1.66-2.02,3.32-3.08,4.92-1.07,1.6-2.19,3.2-3.35,4.78-1.16,1.54-2.34,3.08-3.56,4.6-1.25,1.51-2.52,3-3.83,4.42-1.3,1.45-2.64,2.88-4.03,4.24-1.36,1.36-2.79,2.73-4.24,4.04-1.42,1.3-2.91,2.58-4.42,3.79-1.48,1.22-3.03,2.43-4.6,3.59-1.54,1.13-3.14,2.26-4.78,3.32-1.6,1.07-3.26,2.11-4.92,3.12-1.63.98-3.35,1.93-5.04,2.85-1.69.92-3.44,1.78-5.19,2.61-1.75.83-3.53,1.6-5.31,2.34-1.78.74-3.62,1.45-5.43,2.11-1.81.65-3.68,1.25-5.52,1.81-1.84.56-3.71,1.1-5.58,1.57-1.9.48-3.8.92-5.69,1.27-1.87.39-3.8.74-5.73,1.01-1.9.3-3.86.53-5.78.74-1.93.18-3.88.32-5.81.44-1.93.09-3.91.15-5.84.15Z"/>
    </g>
  </g>
  <g id="_x3C_リピートラジアル_x3E_1" data-name="_x3C_リピートラジアル_x3E_">
    <g>
      <line class="st0" x1="340.83" y1="487.65" x2="340.83" y2="487.65"/>
      <path class="st0" d="M340.83,606.31c-1.96,0-3.91-.06-5.84-.15-1.96-.09-3.92-.24-5.84-.45-1.9-.21-3.86-.44-5.78-.71-1.9-.3-3.83-.65-5.72-1.04-1.87-.36-3.8-.8-5.67-1.27-1.87-.48-3.74-1.01-5.61-1.57-1.84-.56-3.68-1.16-5.49-1.81-1.84-.65-3.65-1.36-5.43-2.11-1.78-.74-3.56-1.51-5.31-2.34-1.75-.83-3.5-1.69-5.19-2.61-1.69-.89-3.41-1.87-5.07-2.85-1.66-1.01-3.29-2.05-4.92-3.11-1.6-1.07-3.2-2.2-4.75-3.32-1.57-1.16-3.11-2.37-4.6-3.59-1.51-1.22-3-2.49-4.45-3.79-1.42-1.31-2.85-2.67-4.24-4.04-1.36-1.36-2.73-2.79-4-4.24-1.3-1.43-2.58-2.91-3.83-4.42-1.22-1.51-2.43-3.06-3.56-4.6-1.16-1.57-2.28-3.17-3.35-4.78-1.07-1.6-2.11-3.26-3.08-4.92-1.01-1.66-1.96-3.35-2.88-5.04-.89-1.72-1.78-3.44-2.58-5.19-.83-1.75-1.63-3.53-2.37-5.31-.71-1.78-1.42-3.62-2.08-5.43-.65-1.81-1.27-3.68-1.84-5.52-.56-1.84-1.07-3.74-1.54-5.58-.48-1.9-.92-3.8-1.3-5.69-.39-1.87-.71-3.83-1.01-5.73-.27-1.9-.53-3.86-.71-5.78-.21-1.93-.36-3.89-.45-5.82-.09-1.96-.15-3.91-.15-5.84s.06-3.91.15-5.84c.09-1.96.24-3.92.45-5.84.18-1.9.44-3.86.71-5.78.3-1.9.62-3.83,1.01-5.72.39-1.9.83-3.8,1.3-5.67.47-1.87.98-3.77,1.54-5.61.56-1.84,1.19-3.68,1.84-5.52.65-1.81,1.36-3.62,2.08-5.4.74-1.78,1.54-3.59,2.37-5.31.8-1.75,1.69-3.5,2.58-5.19.92-1.72,1.87-3.41,2.88-5.07.98-1.66,2.02-3.32,3.08-4.92,1.07-1.6,2.19-3.2,3.35-4.77,1.13-1.54,2.34-3.08,3.56-4.6,1.25-1.48,2.52-2.97,3.83-4.42,1.28-1.45,2.64-2.88,4-4.24,1.39-1.36,2.82-2.73,4.24-4.03,1.45-1.28,2.94-2.58,4.45-3.8,1.48-1.22,3.03-2.43,4.6-3.59,1.54-1.13,3.14-2.25,4.75-3.32,1.63-1.07,3.26-2.11,4.92-3.11,1.66-.98,3.38-1.93,5.07-2.85,1.69-.89,3.44-1.78,5.19-2.61,1.75-.8,3.53-1.6,5.31-2.34,1.78-.74,3.59-1.43,5.43-2.08,1.81-.65,3.65-1.27,5.49-1.84,1.87-.56,3.74-1.1,5.61-1.57,1.87-.48,3.8-.89,5.67-1.27,1.9-.39,3.83-.71,5.72-1.01,1.93-.3,3.89-.54,5.78-.74,1.93-.18,3.89-.33,5.84-.42,3.86-.21,7.8-.21,11.69,0,1.93.09,3.89.24,5.81.42,1.93.21,3.89.44,5.78.74,1.9.3,3.83.62,5.73,1.01,1.9.39,3.8.8,5.67,1.27,1.87.48,3.77,1.01,5.61,1.57,1.84.56,3.71,1.19,5.52,1.84,1.81.65,3.65,1.34,5.43,2.08,1.78.74,3.56,1.54,5.31,2.34,1.72.83,3.47,1.72,5.19,2.61,1.69.92,3.41,1.87,5.04,2.85,1.66,1.01,3.32,2.05,4.92,3.11s3.23,2.2,4.78,3.32c1.54,1.16,3.11,2.37,4.6,3.59,1.51,1.22,3,2.52,4.42,3.8,1.45,1.3,2.88,2.67,4.24,4.03,1.36,1.36,2.73,2.79,4.03,4.24,1.3,1.45,2.58,2.93,3.8,4.42,1.25,1.51,2.43,3.06,3.59,4.6,1.16,1.57,2.26,3.17,3.35,4.77,1.07,1.6,2.11,3.26,3.08,4.92.98,1.66,1.96,3.35,2.85,5.07.92,1.69,1.78,3.44,2.61,5.19.83,1.72,1.6,3.53,2.34,5.31.74,1.78,1.45,3.59,2.11,5.4.65,1.84,1.27,3.68,1.81,5.52.56,1.84,1.1,3.74,1.57,5.61.47,1.87.92,3.77,1.27,5.67.39,1.9.74,3.82,1.01,5.72.3,1.93.53,3.88.74,5.78.21,1.93.33,3.88.45,5.84.09,1.93.15,3.88.15,5.84s-.06,3.89-.15,5.84c-.12,1.93-.24,3.89-.45,5.82-.21,1.93-.44,3.88-.74,5.78-.27,1.9-.62,3.86-1.01,5.73-.36,1.9-.8,3.79-1.27,5.69-.48,1.84-1.01,3.74-1.57,5.58-.53,1.84-1.16,3.71-1.81,5.52-.65,1.81-1.36,3.65-2.11,5.43-.74,1.78-1.51,3.56-2.34,5.31-.83,1.75-1.69,3.47-2.61,5.19-.89,1.69-1.87,3.38-2.85,5.04-.98,1.66-2.02,3.32-3.08,4.92-1.1,1.6-2.2,3.2-3.35,4.78-1.16,1.54-2.34,3.08-3.59,4.6-1.22,1.51-2.49,3-3.8,4.42-1.3,1.45-2.67,2.88-4.03,4.24-1.37,1.36-2.79,2.73-4.24,4.04-1.42,1.3-2.91,2.58-4.42,3.79-1.48,1.22-3.05,2.43-4.6,3.59-1.54,1.13-3.17,2.26-4.78,3.32-1.6,1.07-3.26,2.11-4.92,3.11-1.63.98-3.35,1.96-5.04,2.85-1.72.92-3.47,1.78-5.19,2.61-1.75.83-3.53,1.6-5.31,2.34-1.78.74-3.62,1.45-5.43,2.11-1.81.65-3.68,1.25-5.52,1.81-1.84.56-3.74,1.1-5.61,1.57-1.87.48-3.77.92-5.67,1.27-1.9.39-3.83.74-5.73,1.04-1.9.27-3.86.5-5.78.71-1.93.21-3.89.36-5.81.45-1.96.09-3.92.15-5.84.15Z"/>
    </g>
  </g>
  <g id="_x3C_リピートラジアル_x3E_2" data-name="_x3C_リピートラジアル_x3E_">
    <g>
      <line class="st0" x1="628.94" y1="253.79" x2="628.94" y2="253.79"/>
      <path class="st0" d="M628.94,372.46c-1.93,0-3.91-.06-5.84-.15-1.93-.12-3.89-.27-5.81-.45-1.93-.21-3.89-.44-5.78-.74-1.93-.27-3.86-.62-5.75-1.01-1.87-.39-3.8-.8-5.67-1.27-1.87-.48-3.74-1.01-5.61-1.57-1.84-.56-3.68-1.16-5.49-1.81-1.84-.65-3.65-1.36-5.43-2.11-1.78-.74-3.56-1.51-5.31-2.34-1.75-.83-3.5-1.69-5.19-2.61-1.69-.92-3.41-1.87-5.07-2.85-1.66-1.01-3.29-2.05-4.89-3.11-1.63-1.07-3.23-2.2-4.78-3.32-1.57-1.16-3.11-2.37-4.6-3.59-1.51-1.22-3-2.49-4.45-3.8-1.42-1.3-2.85-2.67-4.21-4.03-1.39-1.36-2.73-2.79-4.03-4.24-1.31-1.42-2.58-2.93-3.83-4.42-1.22-1.51-2.4-3.06-3.56-4.6-1.16-1.57-2.28-3.17-3.35-4.77-1.07-1.6-2.11-3.26-3.08-4.92s-1.96-3.35-2.85-5.04c-.92-1.72-1.81-3.47-2.61-5.19-.83-1.75-1.63-3.53-2.37-5.31-.71-1.81-1.42-3.62-2.08-5.43-.65-1.81-1.28-3.68-1.84-5.52-.56-1.84-1.07-3.74-1.54-5.61-.48-1.87-.92-3.77-1.3-5.67-.39-1.9-.71-3.82-1.01-5.72-.27-1.93-.53-3.86-.71-5.78-.21-1.93-.36-3.88-.44-5.81-.09-1.96-.15-3.91-.15-5.84s.06-3.92.15-5.87c.09-1.93.24-3.89.44-5.82.18-1.93.44-3.86.71-5.78.3-1.9.62-3.83,1.01-5.73.39-1.9.83-3.79,1.3-5.66.48-1.87.98-3.77,1.54-5.61.56-1.84,1.19-3.71,1.84-5.52.65-1.81,1.36-3.62,2.08-5.4.74-1.78,1.54-3.59,2.37-5.31.8-1.75,1.69-3.5,2.61-5.19.89-1.72,1.87-3.41,2.85-5.07.98-1.66,2.02-3.32,3.08-4.92,1.07-1.6,2.19-3.2,3.35-4.74,1.16-1.57,2.34-3.12,3.56-4.63,1.25-1.48,2.52-3,3.83-4.42,1.3-1.45,2.64-2.88,4.03-4.24,1.36-1.36,2.79-2.73,4.21-4.04,1.45-1.27,2.94-2.58,4.45-3.79,1.48-1.22,3.03-2.43,4.6-3.59,1.54-1.13,3.14-2.26,4.78-3.32,1.6-1.07,3.23-2.11,4.89-3.11,1.66-.98,3.38-1.93,5.07-2.85,1.69-.89,3.44-1.78,5.19-2.61,1.75-.8,3.53-1.6,5.31-2.34,1.78-.74,3.59-1.45,5.43-2.07,1.81-.65,3.65-1.28,5.49-1.84,1.87-.56,3.74-1.1,5.61-1.57,1.87-.48,3.8-.89,5.67-1.27,1.9-.39,3.83-.71,5.75-1.01,1.9-.3,3.86-.54,5.78-.74,1.93-.18,3.89-.33,5.81-.42,3.89-.21,7.8-.21,11.69,0,1.93.09,3.89.24,5.81.42,1.93.21,3.89.44,5.78.74,1.93.3,3.86.62,5.75,1.01,1.87.39,3.8.8,5.66,1.27,1.87.48,3.74,1.01,5.58,1.57,1.87.56,3.71,1.18,5.52,1.84,1.81.62,3.65,1.33,5.43,2.07s3.56,1.54,5.31,2.34c1.75.83,3.5,1.72,5.19,2.61,1.69.92,3.41,1.87,5.07,2.85,1.63,1.01,3.29,2.05,4.89,3.11,1.63,1.07,3.23,2.2,4.78,3.32,1.57,1.16,3.12,2.37,4.6,3.59,1.51,1.22,3,2.52,4.42,3.79,1.45,1.31,2.88,2.67,4.24,4.04,1.39,1.36,2.73,2.79,4.03,4.24,1.3,1.43,2.58,2.94,3.83,4.42,1.22,1.51,2.4,3.06,3.56,4.63,1.16,1.54,2.28,3.14,3.35,4.74,1.07,1.6,2.11,3.26,3.08,4.92.98,1.66,1.96,3.35,2.85,5.07.92,1.69,1.78,3.44,2.61,5.19.83,1.72,1.63,3.53,2.34,5.31.74,1.78,1.45,3.59,2.11,5.4.65,1.81,1.28,3.68,1.84,5.52.56,1.84,1.07,3.74,1.54,5.61.47,1.87.92,3.77,1.3,5.66.36,1.9.71,3.83,1.01,5.73.27,1.93.53,3.86.71,5.78.21,1.93.35,3.89.44,5.82.09,1.96.15,3.91.15,5.87s-.06,3.88-.15,5.84c-.09,1.93-.24,3.89-.44,5.81-.18,1.93-.44,3.86-.71,5.78-.3,1.9-.65,3.83-1.01,5.72-.39,1.9-.83,3.8-1.3,5.67-.48,1.87-.98,3.77-1.54,5.61-.56,1.84-1.19,3.71-1.84,5.52-.65,1.81-1.36,3.62-2.11,5.43-.71,1.78-1.51,3.56-2.34,5.31-.83,1.72-1.69,3.47-2.61,5.19-.89,1.69-1.87,3.38-2.85,5.04-.98,1.66-2.02,3.32-3.08,4.92-1.07,1.6-2.2,3.2-3.35,4.77-1.16,1.54-2.34,3.08-3.56,4.6-1.25,1.48-2.52,3-3.83,4.42-1.3,1.45-2.64,2.88-4.03,4.24-1.36,1.36-2.79,2.73-4.24,4.03-1.42,1.31-2.91,2.58-4.42,3.8-1.48,1.22-3.03,2.43-4.6,3.59-1.54,1.13-3.14,2.25-4.78,3.32-1.6,1.07-3.26,2.11-4.89,3.11-1.66.98-3.38,1.93-5.07,2.85-1.69.92-3.44,1.78-5.19,2.61-1.75.83-3.53,1.6-5.31,2.34-1.78.74-3.62,1.45-5.43,2.11-1.81.65-3.65,1.25-5.52,1.81-1.84.56-3.71,1.1-5.58,1.57-1.87.48-3.8.89-5.66,1.27-1.9.39-3.83.74-5.75,1.01-1.9.3-3.86.54-5.78.74-1.93.18-3.89.33-5.81.45-1.93.09-3.91.15-5.84.15Z"/>
    </g>
  </g>
  <g id="_x3C_リピートラジアル_x3E_3" data-name="_x3C_リピートラジアル_x3E_">
    <g>
      <line class="st0" x1="997.76" y1="212.82" x2="997.76" y2="212.82"/>
      <path class="st0" d="M997.76,331.49c-1.96,0-3.92-.06-5.87-.15-1.93-.12-3.89-.27-5.81-.44-1.93-.21-3.86-.45-5.78-.74-1.9-.27-3.83-.62-5.73-1.01-1.9-.39-3.8-.8-5.66-1.28-1.87-.48-3.77-1.01-5.61-1.57-1.84-.56-3.68-1.19-5.52-1.81-1.81-.65-3.62-1.36-5.4-2.11s-3.56-1.54-5.31-2.34c-1.75-.83-3.5-1.72-5.19-2.61-1.72-.92-3.41-1.87-5.07-2.85-1.66-1.01-3.29-2.05-4.92-3.11-1.6-1.07-3.2-2.2-4.75-3.32-1.57-1.16-3.12-2.37-4.6-3.59-1.51-1.22-3-2.49-4.45-3.8-1.42-1.31-2.85-2.67-4.24-4.04-1.36-1.36-2.73-2.79-4.04-4.24-1.27-1.43-2.55-2.94-3.8-4.42-1.22-1.51-2.43-3.05-3.56-4.6-1.16-1.57-2.28-3.17-3.35-4.78s-2.11-3.26-3.08-4.92c-1.01-1.66-1.96-3.35-2.88-5.07-.89-1.69-1.78-3.44-2.61-5.19-.8-1.72-1.6-3.53-2.34-5.31-.74-1.78-1.43-3.59-2.08-5.4-.65-1.81-1.28-3.68-1.84-5.52-.56-1.84-1.1-3.74-1.57-5.61-.44-1.87-.89-3.77-1.28-5.67-.39-1.9-.71-3.83-1.01-5.72-.3-1.93-.53-3.86-.71-5.78-.21-1.93-.36-3.89-.44-5.81-.12-1.96-.15-3.92-.15-5.87s.03-3.88.15-5.84c.09-1.93.24-3.88.44-5.81.18-1.93.42-3.86.71-5.78.3-1.9.62-3.83,1.01-5.72.39-1.9.83-3.8,1.28-5.67.47-1.87,1.01-3.77,1.57-5.61.56-1.84,1.19-3.71,1.84-5.52.65-1.81,1.34-3.65,2.08-5.4.74-1.81,1.54-3.59,2.34-5.31.83-1.75,1.72-3.5,2.61-5.19.92-1.72,1.87-3.41,2.88-5.07.98-1.66,2.02-3.32,3.08-4.92s2.2-3.2,3.35-4.78c1.13-1.54,2.34-3.08,3.56-4.6,1.25-1.48,2.52-3,3.8-4.42,1.31-1.45,2.67-2.88,4.04-4.24,1.39-1.36,2.82-2.73,4.24-4.04,1.45-1.31,2.94-2.58,4.45-3.8,1.48-1.22,3.03-2.43,4.6-3.59,1.54-1.13,3.14-2.25,4.75-3.32,1.63-1.07,3.26-2.11,4.92-3.11,1.66-.98,3.35-1.93,5.07-2.85,1.69-.92,3.44-1.78,5.19-2.61,1.75-.83,3.53-1.6,5.31-2.34s3.59-1.45,5.4-2.11c1.84-.65,3.68-1.25,5.52-1.81,1.84-.56,3.74-1.1,5.61-1.57,1.87-.48,3.77-.89,5.66-1.28,1.9-.39,3.83-.74,5.73-1.01,1.93-.3,3.86-.53,5.78-.74,1.93-.18,3.88-.32,5.81-.44,3.88-.18,7.83-.18,11.72,0,1.93.12,3.89.27,5.81.44,1.93.21,3.86.45,5.78.74,1.9.27,3.83.62,5.73,1.01,1.9.39,3.8.8,5.66,1.28,1.87.47,3.77,1.01,5.61,1.57,1.84.56,3.71,1.16,5.52,1.81,1.81.65,3.65,1.36,5.43,2.11s3.56,1.51,5.31,2.34c1.72.83,3.47,1.69,5.19,2.61,1.69.92,3.38,1.87,5.04,2.85,1.66,1.01,3.32,2.05,4.92,3.11,1.6,1.07,3.2,2.2,4.77,3.32,1.54,1.16,3.08,2.37,4.6,3.59,1.48,1.22,3,2.49,4.42,3.8,1.45,1.31,2.88,2.67,4.24,4.04,1.36,1.36,2.73,2.79,4.03,4.24,1.31,1.42,2.58,2.94,3.8,4.42,1.22,1.51,2.43,3.05,3.59,4.6,1.13,1.57,2.25,3.17,3.32,4.78,1.07,1.6,2.13,3.26,3.11,4.92.98,1.66,1.96,3.35,2.85,5.07.92,1.69,1.78,3.44,2.61,5.19.83,1.72,1.6,3.5,2.34,5.31.74,1.75,1.45,3.59,2.11,5.4s1.25,3.68,1.81,5.52c.56,1.84,1.1,3.74,1.57,5.61.47,1.87.92,3.77,1.27,5.67.39,1.9.74,3.83,1.01,5.72.3,1.93.53,3.86.74,5.78.18,1.93.33,3.88.45,5.81.09,1.96.15,3.92.15,5.84s-.06,3.92-.15,5.87c-.12,1.93-.27,3.88-.45,5.81-.21,1.93-.45,3.86-.74,5.78-.27,1.9-.62,3.83-1.01,5.72-.36,1.9-.8,3.8-1.27,5.67-.48,1.87-1.01,3.77-1.57,5.61-.56,1.84-1.16,3.71-1.81,5.52s-1.36,3.62-2.11,5.4c-.74,1.78-1.51,3.59-2.34,5.31-.83,1.75-1.69,3.5-2.61,5.19-.89,1.72-1.87,3.41-2.85,5.07-.98,1.66-2.05,3.32-3.11,4.92-1.07,1.6-2.2,3.2-3.32,4.78-1.16,1.54-2.37,3.08-3.59,4.6-1.22,1.48-2.49,3-3.8,4.42-1.3,1.45-2.67,2.88-4.03,4.24-1.37,1.36-2.79,2.73-4.24,4.04-1.42,1.31-2.94,2.58-4.42,3.8-1.51,1.22-3.05,2.43-4.6,3.59-1.57,1.13-3.17,2.25-4.77,3.32-1.6,1.07-3.26,2.11-4.92,3.11-1.66.98-3.35,1.93-5.04,2.85-1.72.89-3.47,1.78-5.19,2.61-1.75.8-3.53,1.6-5.31,2.34s-3.62,1.45-5.43,2.11c-1.81.62-3.68,1.25-5.52,1.81-1.84.56-3.74,1.09-5.61,1.57-1.87.48-3.77.89-5.66,1.28-1.9.39-3.83.74-5.73,1.01-1.93.3-3.86.53-5.78.74-1.93.18-3.89.32-5.81.44-1.96.09-3.91.15-5.84.15Z"/>
    </g>
  </g>
  <g id="_x3C_リピートラジアル_x3E_4" data-name="_x3C_リピートラジアル_x3E_">
    <g>
      <line class="st0" x1="1330.17" y1="377.75" x2="1330.17" y2="377.75"/>
      <path class="st0" d="M1330.16,496.42c-1.93,0-3.88-.06-5.84-.15-1.93-.12-3.88-.27-5.81-.45-1.93-.21-3.86-.44-5.78-.74-1.9-.27-3.83-.62-5.72-1.01-1.9-.36-3.8-.8-5.67-1.27s-3.77-1.01-5.61-1.57c-1.84-.56-3.71-1.16-5.52-1.81-1.81-.65-3.62-1.36-5.4-2.11-1.78-.74-3.59-1.51-5.31-2.34-1.75-.83-3.5-1.69-5.19-2.61-1.72-.89-3.41-1.87-5.07-2.85-1.66-.98-3.32-2.05-4.92-3.11-1.6-1.07-3.2-2.2-4.77-3.32-1.54-1.16-3.08-2.37-4.6-3.59-1.51-1.22-3-2.49-4.42-3.8-1.45-1.3-2.88-2.67-4.24-4.03-1.37-1.36-2.73-2.79-4.04-4.24-1.31-1.42-2.58-2.91-3.8-4.42-1.22-1.48-2.43-3.06-3.59-4.6-1.13-1.57-2.25-3.17-3.32-4.77-1.07-1.6-2.11-3.26-3.11-4.92-.98-1.66-1.93-3.35-2.85-5.04-.92-1.72-1.78-3.47-2.61-5.19-.8-1.75-1.6-3.53-2.34-5.31-.74-1.78-1.45-3.62-2.11-5.43-.65-1.81-1.25-3.68-1.81-5.52-.56-1.84-1.1-3.74-1.57-5.61-.48-1.87-.89-3.77-1.28-5.67-.39-1.9-.74-3.83-1.01-5.72-.3-1.93-.53-3.86-.74-5.78-.18-1.93-.33-3.88-.45-5.81-.09-1.93-.15-3.91-.15-5.84s.06-3.92.15-5.84c.12-1.96.27-3.92.45-5.85.21-1.9.45-3.86.74-5.78.27-1.9.62-3.83,1.01-5.73.39-1.9.8-3.79,1.28-5.67.47-1.87,1.01-3.77,1.57-5.61.56-1.84,1.16-3.68,1.81-5.52.65-1.81,1.36-3.62,2.11-5.4.74-1.78,1.54-3.59,2.34-5.31.83-1.75,1.69-3.5,2.61-5.19.92-1.72,1.87-3.41,2.85-5.07,1.01-1.66,2.05-3.32,3.11-4.92,1.07-1.6,2.2-3.2,3.32-4.74,1.16-1.57,2.37-3.12,3.59-4.63,1.22-1.48,2.49-2.97,3.8-4.42,1.3-1.42,2.67-2.85,4.04-4.24,1.36-1.36,2.79-2.73,4.24-4.04,1.42-1.27,2.91-2.58,4.42-3.79,1.51-1.22,3.05-2.43,4.6-3.56,1.57-1.16,3.17-2.29,4.77-3.35,1.6-1.07,3.26-2.11,4.92-3.11,1.66-.98,3.35-1.93,5.07-2.85,1.69-.89,3.44-1.78,5.19-2.58,1.72-.83,3.53-1.63,5.31-2.38,1.78-.74,3.59-1.42,5.4-2.07,1.81-.65,3.68-1.28,5.52-1.84,1.84-.56,3.74-1.1,5.61-1.54,1.87-.48,3.77-.92,5.67-1.3,1.9-.39,3.83-.71,5.72-1.01,1.93-.3,3.86-.54,5.78-.71,1.93-.21,3.88-.36,5.81-.45,3.88-.21,7.83-.21,11.72,0,1.93.09,3.88.24,5.81.45,1.93.18,3.86.41,5.78.71,1.9.3,3.83.62,5.72,1.01,1.9.39,3.8.83,5.67,1.3,1.87.45,3.77.98,5.61,1.54,1.84.56,3.71,1.18,5.52,1.84,1.81.65,3.62,1.33,5.4,2.07,1.78.74,3.59,1.54,5.31,2.38,1.75.8,3.5,1.69,5.19,2.58,1.72.92,3.41,1.87,5.07,2.85,1.66,1.01,3.32,2.05,4.92,3.11,1.6,1.07,3.2,2.2,4.78,3.35,1.54,1.13,3.08,2.34,4.6,3.56,1.48,1.22,3,2.52,4.42,3.79,1.45,1.31,2.88,2.67,4.24,4.04,1.36,1.39,2.73,2.82,4.04,4.24,1.3,1.45,2.58,2.94,3.8,4.42,1.21,1.51,2.43,3.06,3.59,4.63,1.13,1.54,2.25,3.14,3.32,4.74,1.07,1.6,2.11,3.26,3.12,4.92.98,1.66,1.93,3.35,2.85,5.07.92,1.69,1.78,3.44,2.61,5.19.83,1.72,1.6,3.53,2.34,5.31.74,1.78,1.45,3.59,2.11,5.4.65,1.84,1.25,3.68,1.81,5.52.56,1.84,1.1,3.74,1.57,5.61.48,1.87.89,3.77,1.28,5.67.39,1.9.74,3.83,1.01,5.73.3,1.93.53,3.88.74,5.78.18,1.93.32,3.89.44,5.85.09,1.93.15,3.88.15,5.84s-.06,3.92-.15,5.84c-.12,1.93-.27,3.89-.44,5.81-.21,1.93-.45,3.86-.74,5.78-.27,1.9-.62,3.83-1.01,5.72-.39,1.9-.8,3.8-1.28,5.67-.48,1.87-1.01,3.77-1.57,5.61-.56,1.84-1.16,3.71-1.81,5.52-.65,1.81-1.36,3.65-2.11,5.43-.74,1.78-1.51,3.56-2.34,5.31-.83,1.72-1.69,3.47-2.61,5.19-.92,1.69-1.87,3.38-2.85,5.04-1.01,1.66-2.05,3.32-3.12,4.92-1.07,1.6-2.19,3.2-3.32,4.77-1.16,1.54-2.38,3.12-3.59,4.6-1.22,1.51-2.49,3-3.8,4.42-1.31,1.45-2.67,2.88-4.04,4.24-1.36,1.36-2.79,2.73-4.24,4.03-1.43,1.31-2.94,2.58-4.42,3.8-1.51,1.22-3.06,2.43-4.6,3.59-1.57,1.13-3.17,2.25-4.78,3.32-1.6,1.07-3.26,2.13-4.92,3.11-1.66.98-3.35,1.96-5.07,2.85-1.69.92-3.44,1.78-5.19,2.61-1.72.83-3.53,1.6-5.31,2.34-1.78.74-3.59,1.45-5.4,2.11-1.81.65-3.68,1.25-5.52,1.81s-3.74,1.1-5.61,1.57-3.77.92-5.67,1.27c-1.9.39-3.83.74-5.72,1.01-1.93.3-3.86.54-5.78.74-1.93.18-3.89.33-5.81.45-1.96.09-3.92.15-5.87.15Z"/>
    </g>
  </g>
  <g id="_x3C_リピートラジアル_x3E_5" data-name="_x3C_リピートラジアル_x3E_">
    <g>
      <line class="st0" x1="1520.65" y1="696.22" x2="1520.65" y2="696.22"/>
      <path class="st0" d="M1520.65,814.87c-1.93,0-3.92-.06-5.85-.15-1.93-.09-3.88-.23-5.81-.44-1.93-.18-3.88-.42-5.78-.71-1.93-.3-3.86-.62-5.75-1.01-1.87-.39-3.8-.83-5.67-1.31-1.87-.47-3.74-.98-5.58-1.54-1.87-.56-3.71-1.19-5.52-1.84-1.84-.65-3.65-1.34-5.43-2.08-1.78-.74-3.56-1.54-5.31-2.37-1.75-.8-3.5-1.69-5.19-2.58-1.69-.92-3.41-1.87-5.07-2.88-1.66-.98-3.29-2.02-4.92-3.08-1.6-1.07-3.2-2.2-4.74-3.35-1.57-1.16-3.11-2.34-4.6-3.56-1.51-1.25-3-2.52-4.45-3.83-1.43-1.31-2.85-2.64-4.24-4.04-1.36-1.36-2.73-2.79-4.04-4.21-1.27-1.45-2.55-2.93-3.8-4.45-1.22-1.48-2.43-3.02-3.56-4.6-1.16-1.54-2.28-3.14-3.35-4.74-1.07-1.63-2.11-3.26-3.08-4.92-1.01-1.66-1.96-3.38-2.88-5.07-.89-1.69-1.78-3.44-2.58-5.19-.83-1.75-1.63-3.53-2.37-5.31-.71-1.78-1.43-3.62-2.08-5.43s-1.27-3.65-1.84-5.49c-.56-1.87-1.07-3.74-1.54-5.61-.48-1.87-.92-3.8-1.31-5.67-.39-1.9-.71-3.83-1.01-5.75-.3-1.9-.53-3.86-.71-5.76-.21-1.93-.36-3.91-.44-5.84-.09-1.93-.15-3.89-.15-5.84s.06-3.92.15-5.85c.09-1.93.24-3.88.44-5.81.18-1.93.42-3.88.71-5.78.3-1.93.62-3.86,1.01-5.76.39-1.87.83-3.8,1.31-5.67.48-1.87.98-3.74,1.54-5.58.56-1.87,1.19-3.71,1.84-5.52.65-1.81,1.36-3.65,2.08-5.43.74-1.78,1.54-3.56,2.37-5.31.8-1.75,1.69-3.5,2.58-5.19.92-1.69,1.87-3.41,2.88-5.04.98-1.66,2.02-3.32,3.08-4.92,1.07-1.63,2.2-3.23,3.35-4.78,1.13-1.57,2.34-3.11,3.56-4.6,1.25-1.51,2.52-3,3.8-4.42,1.3-1.45,2.67-2.88,4.04-4.24,1.39-1.39,2.82-2.73,4.24-4.04,1.45-1.3,2.94-2.58,4.45-3.79,1.48-1.25,3.02-2.43,4.6-3.59,1.54-1.16,3.15-2.26,4.74-3.32,1.63-1.1,3.26-2.14,4.92-3.12,1.66-.98,3.38-1.96,5.07-2.85,1.69-.92,3.44-1.78,5.19-2.61,1.75-.83,3.53-1.6,5.31-2.34,1.78-.74,3.59-1.45,5.43-2.11,1.81-.65,3.65-1.27,5.52-1.81,1.84-.56,3.71-1.1,5.58-1.57,1.87-.48,3.8-.92,5.67-1.27,1.9-.39,3.83-.74,5.75-1.01,1.9-.3,3.86-.53,5.78-.74,1.93-.21,3.89-.35,5.81-.44,3.89-.18,7.8-.18,11.69,0,1.93.09,3.88.24,5.81.44,1.93.21,3.88.45,5.78.74,1.93.27,3.86.62,5.72,1.01,1.9.35,3.8.8,5.69,1.27,1.87.48,3.74,1.01,5.58,1.57,1.84.53,3.71,1.16,5.52,1.81,1.81.65,3.65,1.36,5.43,2.11,1.78.74,3.56,1.51,5.31,2.34,1.75.83,3.47,1.69,5.19,2.61,1.69.89,3.41,1.87,5.04,2.85,1.66.98,3.32,2.02,4.92,3.12,1.63,1.07,3.23,2.16,4.78,3.32,1.57,1.16,3.11,2.34,4.6,3.59,1.51,1.21,3,2.49,4.42,3.79,1.45,1.31,2.88,2.64,4.24,4.04,1.4,1.36,2.73,2.79,4.04,4.24,1.3,1.43,2.58,2.91,3.83,4.42,1.22,1.48,2.4,3.02,3.56,4.6,1.16,1.54,2.28,3.15,3.35,4.78,1.07,1.6,2.11,3.26,3.08,4.92.98,1.63,1.96,3.35,2.85,5.04.92,1.69,1.78,3.44,2.61,5.19.83,1.75,1.63,3.53,2.34,5.31.74,1.78,1.45,3.62,2.11,5.43.65,1.81,1.27,3.65,1.84,5.52.56,1.84,1.07,3.71,1.54,5.58s.92,3.8,1.31,5.67c.36,1.9.71,3.83,1.01,5.76.27,1.9.53,3.86.71,5.78.21,1.93.36,3.89.44,5.81.09,1.93.15,3.92.15,5.85s-.06,3.91-.15,5.84c-.09,1.93-.24,3.92-.44,5.84-.18,1.9-.45,3.86-.71,5.76-.3,1.93-.65,3.86-1.01,5.75-.39,1.87-.83,3.8-1.31,5.67s-.98,3.74-1.54,5.61c-.56,1.84-1.19,3.68-1.84,5.49-.65,1.81-1.36,3.65-2.11,5.43-.71,1.78-1.51,3.56-2.34,5.31s-1.69,3.5-2.61,5.19c-.89,1.69-1.87,3.41-2.85,5.07-.98,1.66-2.02,3.29-3.08,4.92-1.07,1.6-2.2,3.2-3.35,4.74-1.16,1.57-2.34,3.11-3.56,4.6-1.25,1.51-2.52,3-3.83,4.45-1.31,1.43-2.64,2.85-4.04,4.21-1.36,1.4-2.79,2.73-4.24,4.04-1.43,1.31-2.91,2.58-4.42,3.83-1.48,1.22-3.02,2.4-4.6,3.56-1.54,1.16-3.14,2.28-4.78,3.35-1.6,1.07-3.26,2.11-4.92,3.08-1.63,1.01-3.35,1.96-5.04,2.88-1.72.89-3.44,1.78-5.19,2.58-1.75.83-3.53,1.63-5.31,2.37-1.78.74-3.62,1.43-5.43,2.08-1.81.65-3.68,1.27-5.52,1.84-1.84.56-3.71,1.07-5.58,1.54-1.9.48-3.8.92-5.69,1.31-1.87.39-3.8.71-5.72,1.01-1.9.3-3.86.53-5.78.71-1.93.21-3.89.36-5.81.44-1.93.09-3.92.15-5.84.15Z"/>
    </g>
  </g>
  <g id="_x3C_リピートラジアル_x3E_6" data-name="_x3C_リピートラジアル_x3E_">
    <g>
      <line class="st0" x1="1508.71" y1="1067.11" x2="1508.71" y2="1067.11"/>
      <path class="st0" d="M1508.73,1185.77c-1.96,0-3.92-.06-5.84-.15-1.96-.09-3.92-.24-5.85-.44-1.93-.18-3.86-.45-5.78-.71-1.9-.3-3.83-.65-5.73-1.01-1.9-.39-3.79-.83-5.66-1.31-1.87-.48-3.77-.98-5.61-1.54-1.84-.56-3.68-1.19-5.52-1.84-1.81-.65-3.62-1.36-5.4-2.11-1.78-.71-3.59-1.51-5.31-2.34-1.75-.83-3.5-1.69-5.19-2.61-1.72-.89-3.41-1.87-5.07-2.85-1.66-.98-3.32-2.02-4.92-3.11-1.6-1.07-3.2-2.17-4.78-3.32-1.54-1.16-3.08-2.34-4.6-3.59-1.48-1.22-3-2.49-4.42-3.8-1.45-1.31-2.88-2.64-4.24-4.04-1.36-1.36-2.73-2.79-4.04-4.24-1.3-1.43-2.58-2.91-3.79-4.42-1.22-1.48-2.43-3.05-3.59-4.6-1.13-1.54-2.26-3.14-3.32-4.78-1.07-1.6-2.11-3.26-3.11-4.92-.98-1.63-1.93-3.35-2.85-5.04-.89-1.72-1.78-3.47-2.61-5.19-.8-1.75-1.6-3.53-2.34-5.31-.74-1.78-1.42-3.62-2.07-5.43-.65-1.81-1.28-3.68-1.84-5.52-.56-1.84-1.1-3.71-1.57-5.58-.48-1.9-.89-3.8-1.27-5.69-.39-1.87-.71-3.8-1.01-5.72-.3-1.9-.54-3.86-.74-5.78-.18-1.93-.33-3.89-.42-5.81-.12-1.93-.15-3.92-.15-5.84s.03-3.92.15-5.85c.09-1.93.24-3.88.42-5.81.21-1.93.44-3.88.74-5.78.3-1.93.62-3.86,1.01-5.75.39-1.87.8-3.8,1.27-5.67.48-1.87,1.01-3.74,1.57-5.61.56-1.84,1.18-3.68,1.84-5.49.65-1.84,1.33-3.65,2.07-5.43.74-1.78,1.54-3.56,2.34-5.31.83-1.75,1.72-3.5,2.61-5.19.92-1.69,1.87-3.41,2.85-5.07,1.01-1.66,2.05-3.29,3.11-4.92,1.07-1.6,2.2-3.2,3.32-4.75,1.16-1.57,2.37-3.11,3.59-4.6,1.22-1.51,2.49-3,3.79-4.42,1.31-1.45,2.67-2.88,4.04-4.24,1.36-1.39,2.79-2.73,4.24-4.04,1.43-1.3,2.94-2.58,4.42-3.83,1.51-1.22,3.06-2.4,4.6-3.56,1.57-1.16,3.17-2.28,4.78-3.35,1.6-1.07,3.26-2.11,4.92-3.08,1.66-1.01,3.35-1.96,5.07-2.85,1.69-.92,3.44-1.81,5.19-2.61,1.72-.83,3.53-1.63,5.31-2.37,1.78-.71,3.59-1.42,5.4-2.08,1.84-.65,3.68-1.27,5.52-1.84,1.84-.56,3.74-1.07,5.61-1.54,1.87-.48,3.77-.92,5.66-1.31,1.9-.39,3.83-.71,5.73-1.01,1.93-.3,3.86-.53,5.78-.71,1.93-.21,3.89-.35,5.85-.44,3.86-.21,7.8-.21,11.69,0,1.93.09,3.89.24,5.81.44,1.93.18,3.86.42,5.78.71,1.9.3,3.83.62,5.72,1.01,1.9.39,3.8.83,5.67,1.31s3.77.98,5.61,1.54c1.84.56,3.71,1.19,5.52,1.84,1.81.65,3.62,1.36,5.43,2.08,1.75.74,3.56,1.54,5.31,2.37,1.72.8,3.47,1.69,5.19,2.61,1.69.89,3.38,1.84,5.04,2.85,1.66.98,3.32,2.02,4.92,3.08,1.6,1.07,3.2,2.2,4.77,3.35,1.54,1.16,3.08,2.34,4.6,3.56,1.48,1.25,3,2.52,4.42,3.83,1.45,1.31,2.88,2.64,4.24,4.04,1.36,1.36,2.73,2.79,4.03,4.24,1.31,1.43,2.58,2.91,3.8,4.42,1.22,1.48,2.43,3.02,3.59,4.6,1.13,1.54,2.25,3.15,3.32,4.75,1.07,1.63,2.13,3.26,3.11,4.92.98,1.66,1.96,3.38,2.85,5.07.92,1.69,1.78,3.44,2.61,5.19.83,1.75,1.6,3.53,2.34,5.31.74,1.78,1.45,3.59,2.11,5.43.65,1.81,1.25,3.65,1.81,5.49.56,1.87,1.1,3.74,1.57,5.61.48,1.87.92,3.8,1.27,5.67.39,1.9.74,3.83,1.01,5.75.3,1.9.54,3.86.74,5.78.18,1.93.33,3.89.45,5.81.09,1.93.15,3.92.15,5.85s-.06,3.91-.15,5.84c-.12,1.93-.27,3.88-.45,5.81-.21,1.93-.44,3.88-.74,5.78-.27,1.93-.62,3.86-1.01,5.72-.36,1.9-.8,3.8-1.27,5.69-.48,1.87-1.01,3.74-1.57,5.58-.56,1.84-1.16,3.71-1.81,5.52-.65,1.81-1.36,3.65-2.11,5.43-.74,1.78-1.51,3.56-2.34,5.31-.83,1.72-1.69,3.47-2.61,5.19-.89,1.69-1.87,3.41-2.85,5.04-.98,1.66-2.05,3.32-3.11,4.92-1.07,1.63-2.2,3.24-3.32,4.78-1.16,1.54-2.37,3.11-3.59,4.6-1.22,1.51-2.49,3-3.8,4.42-1.3,1.45-2.67,2.88-4.03,4.24-1.36,1.4-2.79,2.73-4.24,4.04-1.42,1.31-2.93,2.58-4.42,3.8-1.51,1.25-3.06,2.43-4.6,3.59-1.57,1.16-3.17,2.25-4.77,3.32-1.6,1.09-3.26,2.13-4.92,3.11-1.66.98-3.35,1.96-5.04,2.85-1.72.92-3.47,1.78-5.19,2.61-1.75.83-3.56,1.63-5.31,2.34-1.81.74-3.62,1.45-5.43,2.11-1.81.65-3.68,1.27-5.52,1.84-1.84.56-3.74,1.07-5.61,1.54-1.87.48-3.77.92-5.67,1.31-1.9.36-3.82.71-5.72,1.01-1.93.27-3.86.53-5.78.71-1.93.21-3.88.36-5.81.44-1.96.09-3.91.15-5.84.15Z"/>
    </g>
  </g>
  <g id="_x3C_リピートラジアル_x3E_7" data-name="_x3C_リピートラジアル_x3E_">
    <g>
      <line class="st0" x1="1298.15" y1="1372.67" x2="1298.15" y2="1372.67"/>
      <path class="st0" d="M1298.15,1491.32c-1.93,0-3.91-.06-5.84-.15-1.93-.09-3.88-.24-5.81-.45-1.93-.18-3.88-.41-5.78-.71-1.93-.3-3.86-.62-5.75-1.01-1.87-.39-3.8-.83-5.67-1.3-1.87-.48-3.74-.98-5.58-1.54-1.87-.56-3.71-1.19-5.52-1.84s-3.65-1.34-5.43-2.08c-1.78-.74-3.56-1.54-5.31-2.37-1.75-.8-3.5-1.69-5.19-2.58-1.69-.92-3.41-1.87-5.07-2.88-1.63-.98-3.29-2.02-4.9-3.08-1.63-1.07-3.23-2.2-4.77-3.35-1.57-1.16-3.11-2.34-4.6-3.56-1.51-1.25-3-2.52-4.45-3.83-1.43-1.3-2.85-2.64-4.24-4.03-1.36-1.36-2.73-2.79-4-4.21-1.31-1.45-2.58-2.93-3.83-4.45-1.22-1.48-2.4-3.02-3.56-4.6-1.16-1.54-2.28-3.14-3.35-4.77-1.07-1.6-2.11-3.24-3.08-4.9-.98-1.66-1.96-3.38-2.85-5.07-.92-1.69-1.81-3.44-2.61-5.19-.83-1.75-1.63-3.53-2.37-5.31-.71-1.78-1.43-3.59-2.08-5.43-.65-1.81-1.27-3.65-1.84-5.49-.56-1.87-1.07-3.74-1.54-5.61-.48-1.87-.92-3.79-1.31-5.66-.39-1.9-.71-3.83-1.01-5.76-.3-1.9-.53-3.86-.71-5.76-.21-1.96-.36-3.91-.45-5.84-.09-1.93-.15-3.88-.15-5.84s.06-3.92.15-5.84c.09-1.93.24-3.89.45-5.81.18-1.93.41-3.89.71-5.78.3-1.93.62-3.86,1.01-5.73.39-1.9.83-3.79,1.31-5.69.47-1.87.98-3.74,1.54-5.58.56-1.84,1.19-3.71,1.84-5.52.65-1.81,1.36-3.65,2.08-5.43.74-1.78,1.54-3.56,2.37-5.31.8-1.75,1.69-3.47,2.61-5.19.89-1.69,1.87-3.41,2.85-5.04.98-1.66,2.02-3.32,3.08-4.92,1.07-1.63,2.2-3.23,3.35-4.78,1.16-1.57,2.34-3.11,3.56-4.6,1.25-1.51,2.52-3,3.83-4.42,1.27-1.45,2.64-2.88,4-4.24,1.4-1.39,2.82-2.73,4.24-4.04,1.45-1.3,2.93-2.58,4.45-3.82,1.48-1.22,3.02-2.4,4.6-3.56,1.54-1.16,3.14-2.29,4.77-3.35,1.6-1.07,3.26-2.11,4.9-3.08,1.66-.98,3.38-1.96,5.07-2.85,1.69-.92,3.44-1.78,5.19-2.61,1.75-.83,3.53-1.63,5.31-2.34,1.78-.74,3.62-1.45,5.43-2.11,1.81-.65,3.65-1.27,5.52-1.84,1.84-.56,3.71-1.07,5.58-1.54s3.79-.92,5.67-1.3c1.9-.36,3.83-.71,5.75-.98,1.9-.3,3.86-.54,5.78-.74,1.93-.21,3.88-.36,5.81-.45,3.88-.18,7.8-.18,11.69,0,1.93.09,3.88.24,5.81.45,1.93.21,3.88.44,5.78.74,1.93.27,3.86.62,5.76.98,1.87.39,3.8.83,5.67,1.3,1.87.48,3.74.98,5.58,1.54,1.87.56,3.71,1.18,5.52,1.84,1.81.65,3.65,1.37,5.43,2.11,1.78.71,3.56,1.51,5.31,2.34,1.75.83,3.5,1.69,5.19,2.61,1.69.89,3.41,1.87,5.04,2.85,1.66.98,3.32,2.02,4.92,3.08,1.63,1.07,3.23,2.19,4.78,3.35,1.57,1.16,3.11,2.34,4.6,3.56,1.51,1.25,3,2.52,4.45,3.82,1.42,1.31,2.85,2.64,4.21,4.04,1.39,1.36,2.73,2.79,4.04,4.24,1.3,1.43,2.58,2.91,3.83,4.42,1.21,1.48,2.4,3.03,3.56,4.6,1.16,1.54,2.29,3.15,3.35,4.78,1.07,1.6,2.11,3.26,3.08,4.92.98,1.63,1.96,3.35,2.85,5.04.92,1.72,1.78,3.44,2.61,5.19.83,1.75,1.63,3.53,2.34,5.31.74,1.78,1.45,3.62,2.11,5.43.65,1.81,1.27,3.68,1.84,5.52.56,1.84,1.07,3.71,1.54,5.58.48,1.9.92,3.8,1.31,5.69.35,1.87.71,3.8,1.01,5.73.27,1.9.53,3.86.71,5.78.21,1.93.36,3.88.45,5.81.09,1.93.15,3.91.15,5.84s-.06,3.92-.15,5.84c-.09,1.93-.24,3.89-.45,5.84-.18,1.9-.44,3.86-.71,5.76-.3,1.93-.65,3.86-1.01,5.76-.39,1.87-.83,3.79-1.31,5.66-.48,1.87-.98,3.74-1.54,5.61-.56,1.84-1.19,3.68-1.84,5.49-.65,1.84-1.36,3.65-2.11,5.43-.71,1.78-1.51,3.56-2.34,5.31-.83,1.75-1.69,3.5-2.61,5.19-.89,1.69-1.87,3.41-2.85,5.07-.98,1.66-2.02,3.29-3.08,4.9-1.07,1.63-2.2,3.23-3.35,4.77-1.16,1.57-2.34,3.11-3.56,4.6-1.25,1.51-2.52,3-3.83,4.45-1.31,1.43-2.64,2.85-4.04,4.21-1.36,1.39-2.79,2.73-4.21,4.03-1.45,1.31-2.94,2.58-4.45,3.83-1.48,1.22-3.03,2.4-4.6,3.56-1.54,1.16-3.15,2.28-4.78,3.35-1.6,1.07-3.26,2.11-4.92,3.08-1.63,1.01-3.35,1.96-5.04,2.88-1.69.89-3.44,1.78-5.19,2.58-1.75.83-3.53,1.63-5.31,2.37-1.78.74-3.62,1.43-5.43,2.08-1.81.65-3.65,1.28-5.52,1.84-1.84.56-3.71,1.07-5.58,1.54-1.87.47-3.8.92-5.67,1.3-1.9.39-3.83.71-5.76,1.01-1.9.3-3.86.54-5.78.71-1.93.21-3.89.36-5.81.45-1.93.09-3.92.15-5.85.15Z"/>
    </g>
  </g>
  <g id="_x3C_リピートラジアル_x3E_8" data-name="_x3C_リピートラジアル_x3E_">
    <g>
      <line class="st0" x1="955.82" y1="1515.89" x2="955.82" y2="1515.89"/>
      <path class="st0" d="M955.82,1634.53c-1.93,0-3.91-.03-5.84-.12-1.93-.12-3.89-.27-5.81-.45-1.93-.21-3.89-.45-5.78-.74-1.93-.3-3.86-.62-5.75-1.01-1.87-.39-3.8-.8-5.67-1.27-1.87-.48-3.74-1.01-5.58-1.57-1.84-.56-3.71-1.16-5.52-1.81-1.81-.65-3.65-1.36-5.43-2.11-1.78-.74-3.56-1.54-5.31-2.34-1.75-.83-3.5-1.72-5.19-2.61-1.69-.92-3.41-1.87-5.07-2.85-1.63-1.01-3.29-2.05-4.9-3.11-1.63-1.07-3.23-2.2-4.78-3.32-1.57-1.16-3.11-2.37-4.6-3.59-1.51-1.22-3-2.49-4.45-3.8-1.42-1.3-2.85-2.67-4.24-4.03-1.36-1.37-2.7-2.82-4-4.24-1.3-1.45-2.58-2.94-3.83-4.42-1.22-1.51-2.4-3.05-3.56-4.63-1.16-1.54-2.28-3.14-3.35-4.74-1.07-1.6-2.11-3.26-3.08-4.92-.98-1.66-1.96-3.35-2.85-5.07-.92-1.69-1.81-3.44-2.61-5.19-.83-1.72-1.63-3.53-2.37-5.31-.71-1.78-1.42-3.59-2.08-5.4-.65-1.81-1.27-3.68-1.84-5.52-.56-1.84-1.07-3.74-1.54-5.61-.47-1.87-.92-3.77-1.3-5.67-.35-1.9-.71-3.83-1.01-5.72-.27-1.93-.53-3.86-.71-5.78-.21-1.93-.36-3.88-.45-5.81-.09-1.96-.15-3.92-.15-5.84s.06-3.92.15-5.87c.09-1.93.24-3.88.45-5.81.18-1.93.44-3.86.71-5.78.3-1.9.65-3.83,1.01-5.72.39-1.9.83-3.8,1.3-5.67.48-1.87.98-3.77,1.54-5.61.56-1.84,1.19-3.71,1.84-5.52.65-1.81,1.36-3.65,2.08-5.4.74-1.81,1.54-3.59,2.37-5.31.8-1.75,1.69-3.5,2.61-5.19.89-1.72,1.87-3.41,2.85-5.07.98-1.66,2.02-3.32,3.08-4.92,1.07-1.6,2.2-3.2,3.35-4.78,1.16-1.54,2.34-3.08,3.56-4.6,1.25-1.48,2.52-3,3.83-4.42,1.3-1.45,2.64-2.88,4-4.24,1.39-1.36,2.82-2.73,4.24-4.04,1.45-1.3,2.94-2.58,4.45-3.8,1.48-1.21,3.03-2.43,4.6-3.59,1.54-1.13,3.14-2.25,4.78-3.32,1.6-1.07,3.26-2.11,4.9-3.12,1.66-.98,3.38-1.93,5.07-2.85,1.69-.92,3.44-1.78,5.19-2.61,1.75-.8,3.53-1.6,5.31-2.34,1.78-.74,3.62-1.45,5.43-2.11,1.81-.65,3.68-1.25,5.52-1.81,1.84-.56,3.71-1.1,5.58-1.57s3.8-.89,5.67-1.27c1.9-.39,3.83-.74,5.75-1.01,1.9-.3,3.86-.53,5.78-.74,1.93-.18,3.89-.32,5.81-.44,3.89-.18,7.8-.18,11.69,0,1.93.12,3.89.27,5.82.44,1.93.21,3.88.45,5.78.74,1.93.27,3.86.62,5.75,1.01,1.87.39,3.8.8,5.67,1.27s3.74,1.01,5.58,1.57c1.87.56,3.71,1.16,5.52,1.81,1.81.65,3.65,1.36,5.43,2.11,1.78.74,3.56,1.54,5.31,2.34,1.75.83,3.5,1.69,5.19,2.61,1.69.92,3.41,1.87,5.07,2.85,1.66,1.01,3.29,2.05,4.9,3.12,1.63,1.07,3.23,2.19,4.78,3.32,1.57,1.16,3.11,2.38,4.6,3.59,1.51,1.22,3,2.49,4.45,3.8,1.42,1.31,2.85,2.67,4.24,4.04,1.36,1.36,2.7,2.79,4,4.24,1.3,1.43,2.58,2.94,3.83,4.42,1.22,1.51,2.4,3.06,3.56,4.6,1.16,1.57,2.28,3.17,3.35,4.78,1.07,1.6,2.11,3.26,3.08,4.92.98,1.66,1.96,3.35,2.85,5.07.92,1.69,1.81,3.44,2.61,5.19.83,1.72,1.63,3.5,2.37,5.31.71,1.75,1.43,3.59,2.08,5.4.65,1.81,1.27,3.68,1.84,5.52.56,1.84,1.07,3.74,1.54,5.61.48,1.87.92,3.77,1.31,5.67.36,1.9.71,3.83,1.01,5.72.27,1.93.53,3.86.71,5.78.21,1.93.36,3.89.44,5.81.09,1.96.15,3.92.15,5.87s-.06,3.88-.15,5.84c-.09,1.93-.24,3.89-.44,5.81-.18,1.93-.45,3.86-.71,5.78-.3,1.9-.65,3.83-1.01,5.72-.39,1.9-.83,3.8-1.31,5.67s-.98,3.77-1.54,5.61c-.56,1.84-1.19,3.71-1.84,5.52-.65,1.81-1.36,3.62-2.08,5.4-.74,1.78-1.54,3.59-2.37,5.31-.8,1.75-1.69,3.5-2.61,5.19-.89,1.72-1.87,3.41-2.85,5.07-.98,1.66-2.02,3.32-3.08,4.92-1.07,1.6-2.2,3.2-3.35,4.74-1.16,1.57-2.34,3.11-3.56,4.63-1.25,1.48-2.52,2.97-3.83,4.42-1.3,1.43-2.64,2.88-4,4.24-1.39,1.36-2.82,2.73-4.24,4.03-1.45,1.31-2.94,2.58-4.45,3.8-1.48,1.22-3.03,2.43-4.6,3.59-1.54,1.13-3.14,2.25-4.78,3.32-1.6,1.07-3.23,2.11-4.9,3.11-1.66.98-3.38,1.93-5.07,2.85-1.69.89-3.44,1.78-5.19,2.61-1.75.8-3.53,1.6-5.31,2.34-1.78.74-3.62,1.45-5.43,2.11-1.81.65-3.65,1.25-5.52,1.81-1.84.56-3.71,1.1-5.58,1.57-1.87.47-3.8.89-5.67,1.27-1.9.39-3.83.71-5.75,1.01-1.9.3-3.86.53-5.78.74-1.93.18-3.89.33-5.82.45-1.93.09-3.91.12-5.84.12Z"/>
    </g>
  </g>
</svg>